# xmcd
#
# Track frame offsets:
#	150
#	11527
#	28128
#	40861
#	52512
#	67136
#	81142
#	94612
#	107674
#	125108
#	137275
#	149829
#
# Disc length: 2135 seconds
#
# Revision: 0
# Processed by: cddbd v1.5.2PL0 Copyright (c) Steve Scherf et al.
# Submitted via: audiograbber 1.83.01
#
DISCID=a008550c
DTITLE=Alexandra - Träume - Illusionen
DYEAR=1969
DGENRE=Chanson
TTITLE0=Ja Lublú Tebjá (Ich Liebe Dich)
TTITLE1=Mein Freund, Der Baum
TTITLE2=Im Sechsten Stock
TTITLE3=Der Große Clown
TTITLE4=Am Großen Strom
TTITLE5=Tanz, Alter Tanzbär
TTITLE6=Illusionen
TTITLE7=Hereinspaziert
TTITLE8=Der Traum Vom Fliegen
TTITLE9=Grau Zieht Der Nebel (Tombe La Neige)
TTITLE10=Mein Kind, Schlaf Ein
TTITLE11=Auf Dem Wege Nach Odessa
EXTD=
EXTT0=
EXTT1=
EXTT2=
EXTT3=
EXTT4=
EXTT5=
EXTT6=
EXTT7=
EXTT8=
EXTT9=
EXTT10=
EXTT11=
PLAYORDER=
